<svg id="Layer_1" data-name="Layer 1" xmlns="http://www.w3.org/2000/svg" viewBox="0 0 61.43 61.43">
  <defs>
    <style>
      .cls-1, .cls-2, .cls-3, .cls-4, .cls-5, .cls-6 {
        fill: none;
        stroke: #231f20;
      }

      .cls-1 {
        stroke-width: 1.43px;
      }

      .cls-2 {
        stroke-width: 1.43px;
      }

      .cls-3 {
        stroke-width: 1.42px;
      }

      .cls-4 {
        stroke-width: 1.19px;
      }

      .cls-5 {
        stroke-width: 1.08px;
      }

      .cls-6 {
        stroke-width: 0.75px;
      }

      .cls-7 {
        fill: #231f20;
      }
    </style>
  </defs>
  <title>bold_cornell_seal</title>
  <circle class="cls-1" cx="30.72" cy="30.72" r="30"/>
  <circle class="cls-2" cx="30.72" cy="30.72" r="22.36"/>
  <path class="cls-1" d="M44.65,35.22c0-3.17,0-19.33,0-19.33H16.76s0,15.81,0,19c0,10.62,14,16.61,14,16.61S44.65,45.38,44.65,35.22Z"/>
  <path class="cls-1" d="M24.26,25.88s-1.53-.9-2.53-1.57a1.71,1.71,0,0,1-1-1.31c0-.13,0-5,0-5h7.15s0,4.85,0,5a1.53,1.53,0,0,1-.95,1.31C25.91,25,24.26,25.88,24.26,25.88Z"/>
  <path class="cls-1" d="M37.52,25.85S36,25,35,24.28A1.72,1.72,0,0,1,34,23c0-.13,0-5,0-5h7.15s0,4.85,0,5a1.53,1.53,0,0,1-.95,1.31C39.17,25,37.52,25.85,37.52,25.85Z"/>
  <line class="cls-3" x1="16.15" y1="27.92" x2="44.85" y2="27.92"/>
  <path class="cls-1" d="M30.55,31.72a1.38,1.38,0,0,1,1-.59,5.62,5.62,0,0,1,1.59-.06c1.22,0.11,2.21.25,3,.27,1.08,0,1.79,0,2.31,0V43.42s-0.8,0-1.82,0c-2.08,0-2.87-.27-4.51-0.26-1,0-1.06.79-1.43,0.79s-0.41-.78-1.37-0.79c-1.64,0-2.42.21-4.51,0.26-1,0-1.82,0-1.82,0V31.36c0.52,0,1.23,0,2.31,0,0.81,0,1.79-.16,3-0.27a5.62,5.62,0,0,1,1.59.06,1.59,1.59,0,0,1,1,.62"/>
  <line class="cls-4" x1="20.71" y1="20.71" x2="27.8" y2="20.71"/>
  <line class="cls-1" x1="20.71" y1="20.71" x2="27.8" y2="20.71"/>
  <line class="cls-4" x1="30.66" y1="27.47" x2="30.66" y2="51.6"/>
  <line class="cls-5" x1="30.66" y1="27.47" x2="30.66" y2="51.6"/>
  <polyline class="cls-4" points="40.9 22.21 37.4 19.88 34.17 22.21"/>
  <polyline class="cls-1" points="41 22.21 37.5 19.88 34.27 22.21"/>
  <path class="cls-6" d="M32.62,33.65H33c0.64,0.06,1.16.13,1.58,0.14l1.81,0"/>
  <path class="cls-6" d="M32.62,35.95H33c0.64,0.06,1.16.13,1.58,0.14l1.81,0"/>
  <path class="cls-6" d="M32.62,38.25H33c0.64,0.06,1.16.13,1.58,0.14l1.81,0"/>
  <path class="cls-6" d="M32.62,40.55H33c0.64,0.06,1.16.13,1.58,0.14l1.81,0"/>
  <path class="cls-6" d="M28.74,33.63l-0.34,0c-0.64.06-1.16,0.13-1.58,0.14l-1.81,0"/>
  <path class="cls-6" d="M28.74,35.93H28.4c-0.64.06-1.16,0.13-1.58,0.14l-1.81,0"/>
  <path class="cls-6" d="M28.74,38.23H28.4c-0.64.06-1.16,0.13-1.58,0.14l-1.81,0"/>
  <path class="cls-6" d="M28.74,40.53H28.4c-0.64.06-1.16,0.13-1.58,0.14l-1.81,0"/>
  <g>
    <rect class="cls-7" x="20.86" y="32.57" width="1.56" height="1.72"/>
    <rect class="cls-7" x="20.86" y="36.53" width="1.65" height="1.72"/>
    <rect class="cls-7" x="20.86" y="40.08" width="1.56" height="1.71"/>
    <rect class="cls-7" x="38.84" y="32.91" width="1.56" height="1.71"/>
    <rect class="cls-7" x="38.84" y="36.87" width="1.65" height="1.72"/>
    <rect class="cls-7" x="38.84" y="40.42" width="1.56" height="1.71"/>
    <g>
      <path class="cls-7" d="M6.61,27.76a4.07,4.07,0,0,1,.07.94,2,2,0,0,1-2.21,2.1,2,2,0,0,1-2.07-2.37,2.71,2.71,0,0,1,.23-0.91l0.7,0.1a1.65,1.65,0,0,0-.27.87,1.37,1.37,0,0,0,1.41,1.46A1.35,1.35,0,0,0,6,28.66a2.24,2.24,0,0,0-.12-0.9H6.61Z"/>
      <path class="cls-7" d="M3.37,23.26A1.92,1.92,0,0,1,6,21.92a2,2,0,1,1-1.09,3.85A1.91,1.91,0,0,1,3.37,23.26Zm3.49,1a1.27,1.27,0,0,0-1.13-1.51,1.27,1.27,0,0,0-1.73.7,1.27,1.27,0,0,0,1.11,1.5A1.27,1.27,0,0,0,6.86,24.25Z"/>
      <path class="cls-7" d="M5,19l0.42-.78c0.41-.77.88-1.71,1.89-1.17a0.94,0.94,0,0,1,.45,1.19h0A0.61,0.61,0,0,1,8.37,18l1.73,0.18L9.67,19,8.3,18.86a0.51,0.51,0,0,0-.64.3l-0.12.23L9.05,20.2l-0.38.72ZM7,19.09l0.13-.24c0.19-.36.35-0.79-0.1-1S6.3,18,6.1,18.32L6,18.56Z"/>
      <path class="cls-7" d="M7.81,14.25l0.64-.77,3.37,0.78h0l-2.38-2,0.5-.6,3.19,2.64-0.64.77-3.38-.77h0l2.38,2-0.5.6Z"/>
      <path class="cls-7" d="M12,9.76l1.87-1.52,0.41,0.51L13,9.75l0.64,0.79,1.13-.92,0.41,0.51L14.06,11l0.73,0.9,1.24-1,0.41,0.51L14.57,13Z"/>
      <path class="cls-7" d="M16,6.77l0.71-.4,1.71,3,1.38-.78L20.14,9.2,18,10.38Z"/>
      <path class="cls-7" d="M20.22,4.67L21,4.39l1.19,3.28,1.49-.54,0.22,0.61-2.26.82Z"/>
      <path class="cls-7" d="M26.81,2.87l0.82-.07,0.2,2.38c0.06,0.7.32,1.15,0.94,1.09s0.8-.53.75-1.23l-0.2-2.38,0.82-.07,0.22,2.64a1.43,1.43,0,0,1-1.53,1.7A1.43,1.43,0,0,1,27,5.5Z"/>
      <path class="cls-7" d="M32.94,2.66l1,0.14,1.13,3.27h0L35.49,3l0.78,0.11-0.55,4.1-1-.13L33.59,3.8h0L33.17,6.86l-0.78-.1Z"/>
      <path class="cls-7" d="M38.81,3.78L39.59,4,38.35,8l-0.78-.25Z"/>
      <path class="cls-7" d="M41.72,4.76l0.78,0.4L42,8.53h0L44.37,6.1l0.72,0.37L42,9.54l-0.9-.45Z"/>
      <path class="cls-7" d="M47.08,7.82L49,9.3l-0.4.51-1.25-1-0.63.8,1.14,0.9-0.4.51-1.15-.9-0.72.92,1.26,1-0.4.51-1.91-1.49Z"/>
      <path class="cls-7" d="M50.89,11.09l0.58,0.66c0.58,0.66,1.29,1.43.43,2.19a1,1,0,0,1-1.28,0h0a0.6,0.6,0,0,1,0,.61l-0.79,1.56-0.6-.69,0.65-1.22a0.51,0.51,0,0,0-.05-0.71l-0.17-.2-1.29,1.13-0.54-.61ZM50.1,12.87l0.18,0.2c0.27,0.3.62,0.61,1,.27s0.1-.7-0.17-1l-0.18-.2Z"/>
      <path class="cls-7" d="M54.75,17.65a2.11,2.11,0,0,0-.27-0.81,0.57,0.57,0,0,0-.82-0.26C53,16.95,54.21,18.33,53,19a1.29,1.29,0,0,1-1.86-.68,3.57,3.57,0,0,1-.4-1l0.68-.32a2,2,0,0,0,.25.92,0.65,0.65,0,0,0,.83.35c0.68-.4-0.51-1.77.67-2.47a1.25,1.25,0,0,1,1.81.58,3.05,3.05,0,0,1,.37.91Z"/>
      <path class="cls-7" d="M56.57,19.71l0.31,0.76L53,22l-0.31-.76Z"/>
      <path class="cls-7" d="M57.28,23.8L57,22.67l0.63-.16,0.75,3.07-0.63.16L57.47,24.6l-3.38.83-0.2-.8Z"/>
      <path class="cls-7" d="M56.29,29.13l2.41-1.63,0.05,1-1.68,1.06,1.79,0.89,0,0.87L56.33,30,54.7,30l0-.82Z"/>
      <path class="cls-7" d="M7.25,36.29l0.63,2.2-0.63.18L6.85,37.26l-1,.28,0.39,1.34-0.63.18L5.24,37.72l-1.74.5-0.23-.79Z"/>
      <path class="cls-7" d="M9.19,41.36a1.93,1.93,0,0,1-1,2.75,1.94,1.94,0,0,1-2.82-.87,1.93,1.93,0,0,1,1-2.76A1.92,1.92,0,0,1,9.19,41.36ZM5.93,43a1.27,1.27,0,0,0,1.86.38,1.27,1.27,0,0,0,.81-1.69,1.28,1.28,0,0,0-1.83-.39A1.27,1.27,0,0,0,5.93,43Z"/>
      <path class="cls-7" d="M10.95,44.62l0.52,0.65L9.59,46.75c-0.55.44-.78,0.9-0.38,1.4s0.89,0.39,1.45-.05l1.87-1.49L13,47.25,11,48.9a1.44,1.44,0,0,1-2.27-.34,1.44,1.44,0,0,1,.18-2.3Z"/>
      <path class="cls-7" d="M14.34,48.58l0.79,0.64-0.74,3.39h0l2-2.39L17,50.72l-2.62,3.2-0.78-.64,0.74-3.4h0l-2,2.39-0.61-.5Z"/>
      <path class="cls-7" d="M18.54,51.74l1,0.51c1.13,0.57,1.94,1.45,1.2,2.92s-1.93,1.35-3.06.78l-1-.5Zm-0.83,3.49,0.41,0.21A1.42,1.42,0,0,0,19.4,52.9L19,52.69Z"/>
      <path class="cls-7" d="M23.32,53.87l2.35,0.63-0.17.63L24,54.71l-0.26,1,1.42,0.38-0.17.63-1.42-.38-0.3,1.12,1.56,0.42-0.17.63-2.36-.63Z"/>
      <path class="cls-7" d="M27.49,54.82l1.13,0.06c1.26,0.07,2.35.56,2.26,2.2s-1.23,2-2.49,1.93L27.26,59Zm0.63,3.53,0.46,0a1.42,1.42,0,0,0,.16-2.83l-0.46,0Z"/>
      <path class="cls-7" d="M35.08,54.52l0.91-.2L38.45,58l-0.9.19L37,57.37l-1.64.35-0.15,1-0.84.18Zm0.62,0.72h0L35.46,57l1.18-.25Z"/>
      <path class="cls-7" d="M39.37,56.79l0.78-.28,0.28,0.78-0.78.28Z"/>
      <path class="cls-7" d="M40.42,52.87l1-.54c1.11-.61,2.3-0.76,3.08.68s0,2.35-1.11,3l-1,.54Zm2.39,2.67,0.4-.22a1.42,1.42,0,0,0-1.35-2.49l-0.4.22Z"/>
      <path class="cls-7" d="M45.69,53.63l0.68-.47,0.47,0.68-0.68.47Z"/>
      <path class="cls-7" d="M47.4,48l0.52-.51,2.91,2.95L50.23,51,48,48.71l-0.1.89-0.67-.09Z"/>
      <path class="cls-7" d="M51.1,46.79a1.06,1.06,0,0,1-1.18,0,1.12,1.12,0,0,1-.1-1.7,1.16,1.16,0,0,1,1.62-.52,1.09,1.09,0,0,1,.39,1.14h0a1.16,1.16,0,0,1,1.34,0,1.21,1.21,0,0,1,.13,1.86,1.23,1.23,0,0,1-1.82.46,1.12,1.12,0,0,1-.38-1.22h0ZM51.3,46a0.71,0.71,0,0,0-.21-0.72,0.48,0.48,0,0,0-.72.1,0.54,0.54,0,0,0,0,.78A0.79,0.79,0,0,0,51.3,46Zm1.51,1.19a0.54,0.54,0,0,0-.09-0.8,0.82,0.82,0,0,0-1,.13,0.76,0.76,0,0,0,.24.83A0.6,0.6,0,0,0,52.81,47.19Z"/>
      <path class="cls-7" d="M53.31,40.77a1.74,1.74,0,0,0-.47.57,1.12,1.12,0,0,0,.71,1.45h0a0.89,0.89,0,0,1,0-.9,1.14,1.14,0,0,1,1.67-.52,1.3,1.3,0,0,1,.72,1.89c-0.51,1-1.48.83-2.35,0.39s-1.95-1.37-1.35-2.57a2.55,2.55,0,0,1,.52-0.71Zm1.16,2.4A0.62,0.62,0,0,0,55.39,43,0.63,0.63,0,0,0,55,42.16a0.65,0.65,0,0,0-.95.16A0.64,0.64,0,0,0,54.48,43.17Z"/>
      <path class="cls-7" d="M54.69,36.36l-0.45,1.53,0.84,0.27a1.73,1.73,0,0,1,.07-0.37,1.23,1.23,0,0,1,1.67-.89,1.41,1.41,0,0,1,.89,1.94,4.49,4.49,0,0,1-.39.89l-0.71-.23a2.1,2.1,0,0,0,.44-0.75,0.77,0.77,0,0,0-.45-1.05,0.79,0.79,0,0,0-1,.7,2.4,2.4,0,0,0-.1.74l-2.12-.67,0.68-2.27Z"/>
    </g>
  </g>
</svg>
